<?xml version="1.0" standalone="no"?>
<!DOCTYPE svg PUBLIC "-//W3C//DTD SVG 20010904//EN"
 "http://www.w3.org/TR/2001/REC-SVG-20010904/DTD/svg10.dtd">
<svg version="1.0" xmlns="http://www.w3.org/2000/svg"
 width="200.000000pt" height="200.000000pt" viewBox="0 0 200.000000 200.000000"
 preserveAspectRatio="xMidYMid meet">

<g transform="translate(0.000000,200.000000) scale(0.100000,-0.100000)"
fill="#000000" stroke="none">
<path d="M608 1987 c-21 -5 -38 -13 -38 -18 0 -5 -6 -9 -14 -9 -8 0 -22 -10
-30 -22 -15 -20 -16 -21 -34 -5 -18 17 -20 16 -42 -1 -21 -17 -22 -22 -12 -52
l12 -33 -25 27 c-29 31 -51 33 -60 6 -3 -11 -15 -20 -26 -20 -10 0 -19 -4 -19
-10 0 -5 -7 -10 -15 -10 -9 0 -20 -12 -26 -27 -6 -16 -19 -37 -29 -48 -19 -20
-29 -72 -18 -90 3 -6 2 -34 -2 -63 -6 -51 -5 -54 24 -75 39 -27 55 -47 56 -70
0 -10 7 -20 15 -23 8 -4 15 -16 15 -27 0 -13 18 -38 42 -60 35 -32 48 -38 73
-34 37 5 55 0 55 -19 0 -8 9 -14 19 -14 11 0 23 -9 26 -21 5 -16 12 -19 28
-14 12 3 42 8 66 10 23 2 46 6 49 10 3 3 18 -29 33 -72 14 -43 47 -124 71
-180 l46 -102 -32 23 c-54 41 -92 55 -188 71 -108 19 -231 51 -271 72 -27 13
-28 13 -18 -4 17 -33 108 -111 147 -128 20 -8 85 -29 143 -46 117 -34 180 -64
228 -110 47 -43 57 -88 47 -205 -5 -55 -8 -104 -8 -110 1 -6 -4 -11 -10 -11
-7 0 -13 9 -13 19 -1 11 3 16 9 12 17 -11 2 23 -24 55 -45 54 -128 118 -224
171 -54 30 -127 82 -162 115 -61 56 -65 58 -58 30 14 -57 59 -135 105 -180 25
-26 98 -81 161 -123 140 -94 179 -127 197 -170 8 -20 15 -86 18 -178 5 -163
11 -183 70 -211 19 -9 37 -14 40 -12 2 3 -5 32 -17 65 -20 52 -23 77 -22 224
0 236 10 292 67 371 81 114 82 114 252 139 125 18 162 28 220 57 71 35 165
105 149 110 -5 1 -40 -6 -79 -17 -57 -16 -62 -19 -25 -14 118 14 -89 -57 -220
-75 -96 -14 -187 -38 -195 -52 -8 -12 -3 -12 36 5 19 8 84 22 144 31 61 9 138
25 173 35 34 10 62 16 62 13 0 -2 -25 -15 -54 -29 -54 -25 -236 -61 -334 -67
-48 -3 -98 -29 -88 -46 3 -4 -16 -33 -40 -66 -24 -32 -48 -75 -53 -95 -32
-124 -35 -155 -34 -280 0 -86 7 -160 17 -204 9 -38 14 -71 11 -74 -3 -3 -18 6
-32 21 -27 26 -27 27 -26 169 1 79 1 163 1 188 -1 67 0 156 3 240 5 156 -70
245 -246 294 -73 21 -217 77 -212 83 8 7 178 -26 241 -47 85 -28 153 -83 188
-150 35 -68 26 -21 -10 53 -74 155 -166 393 -156 408 12 20 22 5 48 -73 16
-45 50 -127 77 -182 70 -140 91 -217 92 -329 0 -50 -3 -105 -7 -122 -7 -27 -5
-26 17 11 13 22 43 68 66 103 23 34 47 75 53 91 14 42 108 85 218 101 47 7 80
14 73 16 -6 2 -51 -3 -99 -11 -48 -9 -90 -14 -92 -11 -8 7 32 97 46 102 6 3
20 2 30 -2 26 -11 76 -12 89 -2 9 6 15 4 19 -7 3 -9 17 -16 32 -16 40 0 142
23 142 32 0 4 6 8 13 8 15 0 51 37 60 60 3 9 6 10 6 3 1 -14 31 -18 31 -4 0 5
9 11 20 14 12 3 20 14 20 25 0 11 7 22 15 26 8 3 15 12 15 21 0 8 4 23 9 33
44 82 54 120 54 209 1 77 -3 100 -23 142 -13 28 -27 51 -32 51 -4 0 -8 7 -8
15 0 23 -46 62 -97 85 -13 5 -23 14 -23 20 0 5 -5 10 -11 10 -6 0 -17 7 -25
15 -10 9 -34 15 -63 15 -26 0 -52 5 -58 11 -16 16 -118 16 -138 -1 -10 -8 -30
-13 -46 -12 -16 2 -29 -1 -29 -7 0 -6 -11 -11 -25 -11 -15 0 -25 -6 -25 -15 0
-16 -36 -39 -49 -30 -8 4 -23 66 -25 102 -1 6 -11 23 -23 37 -13 14 -23 29
-23 32 0 10 -28 34 -40 34 -6 0 -9 4 -6 9 5 8 -15 18 -59 27 -10 3 -22 8 -25
13 -12 18 -55 20 -73 3 -18 -16 -20 -16 -34 6 -9 12 -22 22 -29 22 -8 0 -14 4
-14 9 0 19 -108 31 -162 18z m-4 -38 c-3 -5 -10 -7 -15 -3 -5 3 -7 10 -3 15 3
5 10 7 15 3 5 -3 7 -10 3 -15z m46 13 c0 -13 -12 -22 -22 -16 -10 6 -1 24 13
24 5 0 9 -4 9 -8z m40 -2 c0 -5 -4 -10 -10 -10 -5 0 -10 5 -10 10 0 6 5 10 10
10 6 0 10 -4 10 -10z m26 -17 c-10 -10 -19 5 -10 18 6 11 8 11 12 0 2 -7 1
-15 -2 -18z m52 -1 c2 -7 -3 -12 -12 -12 -9 0 -16 7 -16 16 0 17 22 14 28 -4z
m-198 -12 c0 -5 -4 -10 -10 -10 -5 0 -10 5 -10 10 0 6 5 10 10 10 6 0 10 -4
10 -10z m230 -21 c0 -5 -7 -9 -15 -9 -15 0 -20 12 -9 23 8 8 24 -1 24 -14z
m89 -20 c-11 -16 -25 -29 -31 -29 -6 0 -6 6 2 15 10 12 9 15 -4 15 -13 0 -15
4 -7 19 7 13 18 17 36 14 l25 -5 -21 -29z m-399 13 c0 -9 -5 -24 -10 -32 -9
-13 -11 -13 -20 0 -16 24 -11 46 10 47 13 1 20 -4 20 -15z m160 8 c0 -5 -5
-10 -11 -10 -5 0 -7 5 -4 10 3 6 8 10 11 10 2 0 4 -4 4 -10z m50 0 c0 -5 -4
-10 -9 -10 -6 0 -13 5 -16 10 -3 6 1 10 9 10 9 0 16 -4 16 -10z m-96 -21 c-3
-5 -10 -7 -15 -3 -5 3 -7 10 -3 15 3 5 10 7 15 3 5 -3 7 -10 3 -15z m134 10
c-2 -6 -8 -10 -13 -10 -5 0 -11 4 -13 10 -2 6 4 11 13 11 9 0 15 -5 13 -11z
m188 -16 l-7 -28 21 25 c17 21 21 23 30 10 5 -8 8 -19 7 -25 -4 -13 -96 -75
-111 -75 -10 1 0 10 41 37 15 11 13 11 -10 3 -36 -13 -37 -12 -37 2 0 11 58
78 68 78 2 0 1 -12 -2 -27z m-356 8 c0 -6 -4 -13 -10 -16 -5 -3 -10 1 -10 9 0
9 5 16 10 16 6 0 10 -4 10 -9z m200 -16 c0 -8 -4 -15 -10 -15 -5 0 -10 7 -10
15 0 8 5 15 10 15 6 0 10 -7 10 -15z m50 5 c0 -5 -4 -10 -10 -10 -5 0 -10 5
-10 10 0 6 5 10 10 10 6 0 10 -4 10 -10z m-379 -44 c23 -26 25 -32 12 -40 -11
-6 -25 1 -50 27 -35 34 -38 62 -6 50 9 -4 29 -20 44 -37z m79 25 c0 -6 -4 -13
-10 -16 -5 -3 -10 1 -10 9 0 9 5 16 10 16 6 0 10 -4 10 -9z m100 -12 c0 -5 -7
-9 -15 -9 -15 0 -20 12 -9 23 8 8 24 -1 24 -14z m30 11 c0 -5 -4 -10 -10 -10
-5 0 -10 5 -10 10 0 6 5 10 10 10 6 0 10 -4 10 -10z m80 6 c0 -3 -4 -8 -10
-11 -5 -3 -10 -1 -10 4 0 6 5 11 10 11 6 0 10 -2 10 -4z m275 -16 c-5 -16 -3
-19 11 -13 12 4 15 2 12 -8 -7 -20 -89 -69 -132 -79 -49 -11 -48 11 2 33 21 9
53 32 72 52 39 40 44 42 35 15z m-435 0 c0 -5 -4 -10 -10 -10 -5 0 -10 5 -10
10 0 6 5 10 10 10 6 0 10 -4 10 -10z m264 -11 c-3 -5 -10 -7 -15 -3 -5 3 -7
10 -3 15 3 5 10 7 15 3 5 -3 7 -10 3 -15z m-134 1 c0 -5 -4 -10 -10 -10 -5 0
-10 5 -10 10 0 6 5 10 10 10 6 0 10 -4 10 -10z m100 -11 c0 -5 -4 -9 -10 -9
-5 0 -10 7 -10 16 0 8 5 12 10 9 6 -3 10 -10 10 -16z m-440 0 c0 7 16 -4 36
-23 20 -19 43 -37 52 -39 10 -3 1 -3 -18 -1 -25 2 -31 1 -20 -6 8 -5 24 -10
35 -10 14 0 16 -3 8 -11 -20 -20 -89 0 -123 34 -34 35 -42 61 -9 31 20 -18 20
-18 13 11 -7 27 -6 29 9 16 12 -9 17 -10 17 -2z m180 1 c0 -5 -5 -10 -11 -10
-5 0 -7 5 -4 10 3 6 8 10 11 10 2 0 4 -4 4 -10z m210 0 c0 -5 -2 -10 -4 -10
-3 0 -8 5 -11 10 -3 6 -1 10 4 10 6 0 11 -4 11 -10z m-240 -15 c0 -8 -4 -15
-10 -15 -5 0 -10 7 -10 15 0 8 5 15 10 15 6 0 10 -7 10 -15z m130 5 c0 -5 -4
-10 -10 -10 -5 0 -10 5 -10 10 0 6 5 10 10 10 6 0 10 -4 10 -10z m-40 -16 c0
-8 -4 -12 -10 -9 -5 3 -10 10 -10 16 0 5 5 9 10 9 6 0 10 -7 10 -16z m240 1
c0 -8 -4 -15 -10 -15 -5 0 -10 7 -10 15 0 8 5 15 10 15 6 0 10 -7 10 -15z
m205 -22 c-19 -15 -19 -15 10 -9 l30 6 -32 -29 c-37 -35 -89 -51 -153 -50
l-45 2 35 7 35 7 -35 3 -35 2 45 12 c58 16 100 38 124 65 14 16 23 18 30 11 8
-8 5 -16 -9 -27z m-481 6 c-3 -5 -10 -7 -15 -3 -5 3 -7 10 -3 15 3 5 10 7 15
3 5 -3 7 -10 3 -15z m201 11 c3 -5 1 -10 -4 -10 -6 0 -11 5 -11 10 0 6 2 10 4
10 3 0 8 -4 11 -10z m-34 -13 c-1 -12 -15 -9 -19 4 -3 6 1 10 8 8 6 -3 11 -8
11 -12z m-345 -70 c16 -3 44 -3 64 0 19 3 32 2 28 -2 -4 -4 -33 -11 -65 -16
l-58 -8 62 3 c67 2 73 -6 17 -24 -19 -7 -34 -14 -31 -16 2 -2 18 1 35 7 50 17
61 4 17 -19 -22 -12 -35 -21 -30 -22 6 0 28 9 49 21 56 30 54 17 -6 -28 -91
-69 -167 -100 -183 -73 -4 6 7 13 25 16 17 4 33 11 37 17 4 6 0 8 -10 4 -45
-17 -84 -18 -90 -3 -5 12 1 16 26 17 l32 1 -29 7 c-32 7 -40 19 -27 40 6 10
13 11 29 2 25 -13 69 -13 97 0 15 7 11 8 -17 4 -22 -3 -52 1 -77 11 -43 17
-57 40 -18 29 20 -6 21 -5 5 8 -17 13 -25 47 -13 47 3 0 18 -8 33 -17 l27 -17
-22 25 c-16 17 -19 29 -12 40 7 15 13 12 43 -16 19 -18 47 -35 62 -38z m125
50 c-13 -13 -26 -3 -16 12 3 6 11 8 17 5 6 -4 6 -10 -1 -17z m189 13 c0 -5 -4
-10 -10 -10 -5 0 -10 5 -10 10 0 6 5 10 10 10 6 0 10 -4 10 -10z m100 0 c0 -5
-4 -10 -10 -10 -5 0 -10 5 -10 10 0 6 5 10 10 10 6 0 10 -4 10 -10z m-180 -10
c0 -5 -4 -10 -10 -10 -5 0 -10 5 -10 10 0 6 5 10 10 10 6 0 10 -4 10 -10z m40
0 c0 -5 -4 -10 -10 -10 -5 0 -10 5 -10 10 0 6 5 10 10 10 6 0 10 -4 10 -10z
m100 -8 c0 -13 -12 -22 -22 -16 -10 6 -1 24 13 24 5 0 9 -4 9 -8z m80 -6 c0
-8 -4 -18 -10 -21 -5 -3 -10 3 -10 14 0 12 5 21 10 21 6 0 10 -6 10 -14z
m-124 -23 c-10 -10 -19 5 -10 18 6 11 8 11 12 0 2 -7 1 -15 -2 -18z m-119 -5
c-3 -8 -6 -5 -6 6 -1 11 2 17 5 13 3 -3 4 -12 1 -19z m189 -5 c-10 -10 -19 5
-10 18 6 11 8 11 12 0 2 -7 1 -15 -2 -18z m595 -3 c7 -24 7 -24 8 -2 1 15 7
22 20 22 33 0 43 -93 17 -155 -19 -45 -46 -47 -46 -2 0 17 -4 39 -9 46 -6 10
-8 1 -4 -25 4 -30 1 -43 -11 -53 -23 -20 -33 -6 -52 72 -14 57 -15 72 -4 95
11 22 14 24 17 10 6 -25 23 -22 23 3 0 29 32 21 41 -11z m-851 10 c0 -5 -4
-10 -10 -10 -5 0 -10 5 -10 10 0 6 5 10 10 10 6 0 10 -4 10 -10z m40 0 c0 -5
-7 -10 -16 -10 -8 0 -12 5 -9 10 3 6 10 10 16 10 5 0 9 -4 9 -10z m110 0 c0
-5 -4 -10 -10 -10 -5 0 -10 5 -10 10 0 6 5 10 10 10 6 0 10 -4 10 -10z m410 0
c0 -5 -8 -14 -17 -20 -16 -9 -15 -10 5 -5 31 9 28 -11 -5 -30 l-28 -16 33 6
c39 8 44 -11 6 -25 -52 -20 -203 -6 -219 20 -3 5 8 5 27 0 38 -11 51 -4 17 9
-28 11 -17 16 52 26 25 3 61 14 80 25 39 22 49 24 49 10z m186 -51 c7 -25 15
-70 19 -99 6 -42 5 -52 -6 -48 -8 3 -20 15 -27 29 -11 22 -12 20 -6 -18 8 -55
-7 -56 -53 -5 -50 55 -76 107 -59 121 10 8 16 5 25 -15 6 -15 14 -24 17 -21 3
3 1 14 -5 25 -12 23 -5 52 13 52 6 0 19 -12 28 -27 l17 -28 -6 44 c-5 38 -4
43 13 39 13 -2 23 -17 30 -49z m221 17 c-5 -20 -5 -20 10 2 21 29 36 28 31 -3
-6 -27 6 -34 16 -9 9 23 26 7 26 -24 0 -26 -65 -132 -81 -132 -17 0 -19 21 -4
52 l16 33 -20 -25 c-11 -14 -21 -28 -21 -32 0 -5 -7 -8 -16 -8 -12 0 -13 5 -7
23 4 12 8 52 8 88 -1 63 0 65 23 61 18 -4 22 -10 19 -26z m-737 16 c0 -13 -12
-22 -22 -16 -10 6 -1 24 13 24 5 0 9 -4 9 -8z m60 -6 c0 -8 -4 -17 -9 -21 -12
-7 -24 12 -16 25 9 15 25 12 25 -4z m-273 -22 c-9 -9 -28 6 -21 18 4 6 10 6
17 -1 6 -6 8 -13 4 -17z m29 -1 c-10 -10 -19 5 -10 18 6 11 8 11 12 0 2 -7 1
-15 -2 -18z m44 12 c0 -8 -4 -15 -10 -15 -5 0 -10 7 -10 15 0 8 5 15 10 15 6
0 10 -7 10 -15z m30 -5 c0 -5 -5 -10 -11 -10 -5 0 -7 5 -4 10 3 6 8 10 11 10
2 0 4 -4 4 -10z m70 0 c0 -5 -4 -10 -10 -10 -5 0 -10 5 -10 10 0 6 5 10 10 10
6 0 10 -4 10 -10z m56 -25 c-3 -9 -11 -13 -16 -10 -8 5 -7 11 1 21 14 18 24
11 15 -11z m-206 1 c0 -3 -4 -8 -10 -11 -5 -3 -10 -1 -10 4 0 6 5 11 10 11 6
0 10 -2 10 -4z m170 -11 c0 -8 -7 -15 -15 -15 -26 0 -18 20 13 29 1 1 2 -6 2
-14z m-140 -5 c0 -5 -4 -10 -10 -10 -5 0 -10 5 -10 10 0 6 5 10 10 10 6 0 10
-4 10 -10z m50 -11 c0 -5 -7 -9 -15 -9 -8 0 -15 7 -15 15 0 9 6 12 15 9 8 -4
15 -10 15 -15z m203 7 c37 -25 139 -47 182 -40 31 5 37 3 29 -6 -6 -6 -31 -14
-55 -18 -36 -5 -40 -7 -20 -12 14 -3 27 -12 29 -19 13 -40 -177 29 -200 72
-11 21 -11 21 15 4 39 -25 46 -21 12 8 -33 27 -28 34 8 11z m773 -23 c-5 -37
-5 -37 6 -10 7 15 16 27 20 27 18 0 19 -29 3 -57 l-17 -28 20 23 c23 25 32 28
32 8 0 -20 -38 -64 -83 -97 -31 -23 -43 -26 -54 -17 -11 9 -9 16 14 41 l28 30
-31 -21 c-17 -12 -34 -19 -37 -16 -3 3 11 39 31 79 25 49 43 74 55 74 15 1 17
-5 13 -36z m-936 17 c0 -5 -4 -10 -10 -10 -5 0 -10 5 -10 10 0 6 5 10 10 10 6
0 10 -4 10 -10z m-140 -19 c0 -5 -23 -34 -51 -65 -39 -43 -62 -59 -105 -73
-39 -12 -57 -14 -65 -6 -8 8 -2 13 20 18 17 3 33 11 36 16 4 5 -5 5 -20 -1
-32 -12 -55 -13 -55 -2 0 4 20 14 44 21 25 7 73 33 107 57 61 43 89 54 89 35z
m345 -72 c17 -6 46 -15 65 -18 23 -4 36 -13 38 -25 3 -15 -1 -18 -20 -14 -12
3 -32 9 -43 13 -14 6 -12 1 7 -14 23 -18 26 -26 18 -41 -6 -10 -10 -28 -10
-40 0 -24 -26 -38 -42 -22 -7 7 -4 14 11 24 11 7 21 18 21 25 0 7 -36 49 -80
95 -88 91 -104 119 -37 64 23 -19 56 -40 72 -47z m273 14 c28 -36 52 -72 52
-79 0 -18 -20 -18 -50 2 -14 9 -10 3 8 -13 18 -16 31 -31 28 -34 -10 -10 -186
55 -186 69 0 13 8 12 60 -6 8 -3 3 5 -12 17 -42 34 -32 75 12 51 19 -10 20 -9
14 14 -6 25 1 47 14 45 4 0 31 -30 60 -66z m-600 0 c-22 -51 -91 -157 -108
-168 -6 -4 -18 -4 -27 -1 -14 6 -14 9 3 28 19 21 19 21 -3 9 -32 -16 -56 -14
-76 9 -16 19 -16 20 6 20 40 1 101 37 157 94 30 31 58 56 62 56 4 0 -3 -21
-14 -47z m349 -126 c-2 -7 -12 -11 -21 -11 -13 2 -15 -4 -10 -30 8 -45 -17
-67 -40 -34 -16 22 -16 21 -13 -17 2 -38 1 -40 -27 -40 -37 0 -43 18 -15 44
31 29 28 75 -10 157 -50 108 -34 113 60 22 44 -44 78 -85 76 -91z m-301 106
c-6 -58 0 -50 21 27 l10 35 12 -58 c22 -102 -24 -268 -77 -275 -27 -4 -28 8
-1 59 27 53 19 60 -10 9 -12 -22 -26 -40 -31 -40 -18 0 -21 22 -6 45 22 34 19
45 -4 17 -16 -19 -23 -21 -40 -12 -11 6 -20 14 -20 19 0 4 24 44 53 88 28 44
60 94 69 111 9 18 20 32 24 32 3 0 4 -26 0 -57z m85 30 c1 -16 5 -39 10 -53 6
-18 7 -10 3 28 -5 53 8 72 22 30 4 -13 20 -51 35 -85 30 -63 33 -80 23 -107
-9 -23 -22 -20 -27 7 -3 15 -5 12 -6 -11 -2 -69 -40 -99 -42 -34 l-2 37 -6
-42 c-8 -49 -21 -68 -21 -32 -1 24 -1 24 -16 -3 -8 -16 -22 -28 -30 -28 -18 0
-18 0 15 90 15 39 20 80 21 143 0 51 4 87 10 87 6 0 10 -12 11 -27z m1012 -65
c-3 -7 -1 -8 5 -4 22 13 34 -5 17 -24 -15 -16 -14 -18 4 -23 28 -7 16 -44 -20
-62 -37 -20 -139 -20 -139 -1 0 7 17 21 38 29 l37 16 -42 -5 c-24 -3 -43 -2
-43 3 0 4 26 26 56 48 31 22 61 49 66 60 11 19 11 19 20 -4 4 -12 5 -28 1 -33z
m-338 12 c3 -5 -1 -10 -10 -10 -9 0 -13 5 -10 10 3 6 8 10 10 10 2 0 7 -4 10
-10z m45 6 c0 -3 -4 -8 -10 -11 -5 -3 -10 -1 -10 4 0 6 5 11 10 11 6 0 10 -2
10 -4z m-120 -31 c0 -8 -7 -15 -15 -15 -16 0 -20 12 -8 23 11 12 23 8 23 -8z
m165 5 c-3 -5 -13 -10 -21 -10 -8 0 -14 5 -14 10 0 6 9 10 21 10 11 0 17 -4
14 -10z m-115 -10 c0 -5 -5 -10 -11 -10 -5 0 -7 5 -4 10 3 6 8 10 11 10 2 0 4
-4 4 -10z m140 -10 c0 -5 -4 -10 -10 -10 -5 0 -10 5 -10 10 0 6 5 10 10 10 6
0 10 -4 10 -10z m-368 -36 c73 -31 88 -54 36 -55 l-33 -1 28 -10 c61 -22 -3
-47 -117 -44 -41 1 -50 5 -57 24 -8 22 -7 23 29 17 l37 -5 -35 13 c-43 17 -55
56 -18 58 17 1 18 3 6 6 -10 2 -18 11 -18 20 0 22 58 13 142 -23z m268 26 c0
-5 -4 -10 -9 -10 -6 0 -13 5 -16 10 -3 6 1 10 9 10 9 0 16 -4 16 -10z m-120
-10 c0 -5 -7 -10 -15 -10 -8 0 -15 5 -15 10 0 6 7 10 15 10 8 0 15 -4 15 -10z
m160 0 c0 -5 -4 -10 -10 -10 -5 0 -10 5 -10 10 0 6 5 10 10 10 6 0 10 -4 10
-10z m90 1 c0 -6 -4 -13 -10 -16 -5 -3 -10 1 -10 9 0 9 5 16 10 16 6 0 10 -4
10 -9z m-220 -5 c0 -3 -4 -8 -10 -11 -5 -3 -10 -1 -10 4 0 6 5 11 10 11 6 0
10 -2 10 -4z m40 0 c0 -2 -7 -6 -15 -10 -8 -3 -15 -1 -15 4 0 6 7 10 15 10 8
0 15 -2 15 -4z m30 -21 c0 -8 -4 -15 -10 -15 -5 0 -10 7 -10 15 0 8 5 15 10
15 6 0 10 -7 10 -15z m100 4 c0 -16 -30 -43 -38 -34 -4 4 -1 10 6 12 6 3 12
11 12 19 0 8 5 14 10 14 6 0 10 -5 10 -11z m78 -11 c-6 -18 -28 -21 -28 -4 0
9 7 16 16 16 9 0 14 -5 12 -12z m-308 -8 c0 -5 -4 -10 -10 -10 -5 0 -10 5 -10
10 0 6 5 10 10 10 6 0 10 -4 10 -10z m57 -16 c-9 -9 -28 6 -21 18 4 6 10 6 17
-1 6 -6 8 -13 4 -17z m113 16 c0 -5 -7 -10 -16 -10 -8 0 -12 5 -9 10 3 6 10
10 16 10 5 0 9 -4 9 -10z m-78 -22 c-6 -6 -15 -8 -19 -4 -4 4 -1 11 7 16 19
12 27 3 12 -12z m-906 -20 c35 -20 41 -32 24 -43 -5 -3 -17 3 -27 15 -10 11
-21 20 -25 20 -5 0 -17 9 -29 21 l-21 21 22 -7 c12 -4 38 -16 56 -27z m1074
22 c0 -5 -7 -10 -15 -10 -8 0 -15 5 -15 10 0 6 7 10 15 10 8 0 15 -4 15 -10z
m-130 -10 c0 -5 -4 -10 -10 -10 -5 0 -10 5 -10 10 0 6 5 10 10 10 6 0 10 -4
10 -10z m190 1 c0 -12 -20 -25 -27 -18 -7 7 6 27 18 27 5 0 9 -4 9 -9z m-330
-11 c0 -5 -4 -10 -10 -10 -5 0 -10 5 -10 10 0 6 5 10 10 10 6 0 10 -4 10 -10z
m513 -9 c-28 -24 -29 -31 -3 -24 30 8 24 -14 -7 -31 -27 -15 -27 -15 -5 -16
34 0 22 -24 -14 -28 -37 -5 -134 16 -134 29 0 5 19 9 43 10 l42 1 -38 11 c-65
20 -40 44 48 46 22 1 47 6 55 11 26 17 36 10 13 -9z m-443 -1 c0 -5 -4 -10
-10 -10 -5 0 -10 5 -10 10 0 6 5 10 10 10 6 0 10 -4 10 -10z m206 -17 c-10
-10 -19 5 -10 18 6 11 8 11 12 0 2 -7 1 -15 -2 -18z m-545 -5 c1 -13 1 -46 -1
-74 -1 -28 3 -61 9 -73 6 -11 16 -30 22 -42 9 -17 4 -27 -31 -65 -22 -24 -46
-55 -52 -69 -6 -14 -15 -25 -19 -25 -5 0 -119 270 -119 283 0 2 12 2 28 0 21
-3 36 5 72 41 50 50 89 60 91 24z m299 12 c0 -5 -4 -10 -10 -10 -5 0 -10 5
-10 10 0 6 5 10 10 10 6 0 10 -4 10 -10z m70 0 c0 -5 -4 -10 -10 -10 -5 0 -10
5 -10 10 0 6 5 10 10 10 6 0 10 -4 10 -10z m70 6 c0 -3 -4 -8 -10 -11 -5 -3
-10 -1 -10 4 0 6 5 11 10 11 6 0 10 -2 10 -4z m160 -27 c0 -5 -7 -9 -15 -9
-15 0 -20 12 -9 23 8 8 24 -1 24 -14z m-330 1 c0 -5 -7 -10 -15 -10 -8 0 -15
5 -15 10 0 6 7 10 15 10 8 0 15 -4 15 -10z m70 6 c0 -3 -4 -8 -10 -11 -5 -3
-10 -1 -10 4 0 6 5 11 10 11 6 0 10 -2 10 -4z m60 -11 c0 -8 -4 -15 -10 -15
-5 0 -10 7 -10 15 0 8 5 15 10 15 6 0 10 -7 10 -15z m80 11 c0 -11 -19 -15
-25 -6 -3 5 1 10 9 10 9 0 16 -2 16 -4z m30 -6 c0 -5 -4 -10 -10 -10 -5 0 -10
5 -10 10 0 6 5 10 10 10 6 0 10 -4 10 -10z m-78 -22 c-7 -7 -12 -8 -12 -2 0 6
3 14 7 17 3 4 9 5 12 2 2 -3 -1 -11 -7 -17z m-142 2 c0 -5 -5 -10 -11 -10 -5
0 -7 5 -4 10 3 6 8 10 11 10 2 0 4 -4 4 -10z m262 -5 c0 -5 -5 -11 -11 -13 -6
-2 -11 4 -11 13 0 9 5 15 11 13 6 -2 11 -8 11 -13z m-332 -13 c0 -10 -12 -23
-27 -30 -25 -10 -26 -11 -3 -5 40 9 42 9 46 -2 6 -15 -107 -94 -144 -101 -39
-8 -67 10 -42 26 12 8 11 11 -7 16 -29 8 -31 44 -3 44 11 0 20 5 20 10 0 6 -6
10 -14 10 -19 0 -29 17 -22 35 4 12 27 15 101 15 85 0 95 -2 95 -18z m250 8
c0 -5 -4 -10 -10 -10 -5 0 -10 5 -10 10 0 6 5 10 10 10 6 0 10 -4 10 -10z m35
1 c3 -5 1 -12 -5 -16 -5 -3 -10 1 -10 9 0 18 6 21 15 7z m-245 -11 c0 -5 -4
-10 -10 -10 -5 0 -10 5 -10 10 0 6 5 10 10 10 6 0 10 -4 10 -10z m65 0 c-3 -5
-11 -10 -16 -10 -6 0 -7 5 -4 10 3 6 11 10 16 10 6 0 7 -4 4 -10z m265 0 c0
-5 -7 -10 -16 -10 -8 0 -12 5 -9 10 3 6 10 10 16 10 5 0 9 -4 9 -10z m-190
-10 c0 -5 -4 -10 -10 -10 -5 0 -10 5 -10 10 0 6 5 10 10 10 6 0 10 -4 10 -10z
m-50 -10 c0 -5 -5 -10 -11 -10 -5 0 -7 5 -4 10 3 6 8 10 11 10 2 0 4 -4 4 -10z
m90 6 c0 -3 -4 -8 -10 -11 -5 -3 -10 -1 -10 4 0 6 5 11 10 11 6 0 10 -2 10 -4z
m40 -4 c0 -13 -12 -22 -22 -16 -10 6 -1 24 13 24 5 0 9 -4 9 -8z m-195 -12
c-3 -5 -10 -10 -16 -10 -5 0 -9 5 -9 10 0 6 7 10 16 10 8 0 12 -4 9 -10z m240
0 c-3 -5 -10 -10 -16 -10 -5 0 -9 5 -9 10 0 6 7 10 16 10 8 0 12 -4 9 -10z
m45 -5 c-7 -8 -16 -12 -21 -9 -13 8 -1 24 18 24 13 0 13 -3 3 -15z m95 -14
c35 -20 77 -78 73 -100 -5 -24 -24 -23 -36 1 -9 20 -10 17 -5 -19 6 -43 -3
-53 -25 -31 -9 9 -12 8 -12 -6 0 -30 -20 -7 -52 61 -20 43 -27 68 -20 75 6 6
15 2 26 -13 9 -13 16 -19 16 -13 0 5 -7 19 -15 30 -25 37 0 44 50 15z m-348
-17 c-9 -9 -28 6 -21 18 4 6 10 6 17 -1 6 -6 8 -13 4 -17z m453 18 c0 -4 -4
-12 -9 -17 -5 -6 -11 -19 -13 -29 -2 -16 -7 -14 -31 17 l-28 37 40 0 c23 0 41
-4 41 -8z m-360 -12 c0 -5 -4 -10 -10 -10 -5 0 -10 5 -10 10 0 6 5 10 10 10 6
0 10 -4 10 -10z m37 -16 c-9 -9 -28 6 -21 18 4 6 10 6 17 -1 6 -6 8 -13 4 -17z
m43 16 c0 -5 -4 -10 -10 -10 -5 0 -10 5 -10 10 0 6 5 10 10 10 6 0 10 -4 10
-10z m-230 -6 c0 -3 -12 -22 -27 -42 l-27 -37 30 28 c42 38 49 34 23 -12 -33
-59 -96 -118 -111 -103 -8 8 -8 15 3 28 15 19 17 19 -33 -1 -10 -4 -18 -3 -18
3 0 6 6 13 13 15 6 3 -1 6 -16 6 -36 1 -31 21 9 34 16 6 54 27 84 48 54 37 70
45 70 33z m284 -9 c-6 -16 -24 -21 -24 -7 0 11 11 22 21 22 5 0 6 -7 3 -15z
m-184 -10 c0 -8 -7 -15 -15 -15 -16 0 -20 12 -8 23 11 12 23 8 23 -8z m50 -14
c0 -11 -26 -22 -34 -14 -12 12 -5 23 14 23 11 0 20 -4 20 -9z m42 -13 c-7 -7
-12 -8 -12 -2 0 14 12 26 19 19 2 -3 -1 -11 -7 -17z m48 13 c0 -12 -20 -25
-27 -18 -7 7 6 27 18 27 5 0 9 -4 9 -9z m74 -28 c35 -43 45 -66 46 -99 0 -24
-6 -34 -27 -45 -16 -8 -31 -18 -35 -24 -11 -15 -47 24 -58 64 -12 44 -13 111
-2 111 5 0 14 -10 20 -22 11 -23 11 -23 11 3 1 24 8 39 19 39 2 0 14 -12 26
-27z m-300 -67 c-19 -43 -38 -76 -41 -73 -2 3 0 14 6 25 6 12 11 24 11 29 -1
4 -8 -4 -16 -19 -8 -17 -23 -28 -35 -28 -13 0 -18 4 -13 13 12 20 118 136 121
133 2 -1 -13 -38 -33 -80z m66 32 c-9 -30 -8 -31 5 -14 8 11 15 23 15 28 0 4
3 8 8 8 13 0 8 -163 -6 -168 -8 -2 -16 6 -19 19 l-6 23 -8 -22 c-12 -33 -29
-27 -30 11 -1 29 -2 29 -8 8 -7 -26 -31 -41 -31 -19 0 31 24 95 47 125 32 42
44 42 33 1z m91 0 c1 -22 3 -26 6 -13 10 42 22 36 38 -21 9 -33 21 -70 26 -83
14 -35 -4 -49 -26 -19 l-17 23 7 -22 c5 -17 2 -23 -9 -23 -8 0 -18 5 -21 10
-4 6 -10 8 -15 5 -12 -7 -40 48 -40 78 0 31 27 97 40 97 6 0 11 -15 11 -32z
m-363 -31 c9 -10 3 -21 -24 -46 -36 -35 -74 -99 -74 -126 0 -9 -4 -13 -10 -10
-27 17 -1 100 50 158 35 41 42 43 58 24z m62 -52 c7 -8 18 -15 24 -15 6 0 19
-7 29 -14 16 -12 15 -19 -21 -98 -20 -47 -45 -92 -53 -101 -9 -9 -19 -31 -23
-49 -4 -18 -23 -55 -44 -83 l-37 -50 -8 108 c-7 105 -7 109 23 180 54 129 80
158 110 122z m-111 -80 c-29 -59 -38 -71 -33 -45 7 39 29 86 52 113 26 30 22
15 -19 -68z m-339 -36 c63 -13 171 -61 191 -85 9 -11 4 -10 -22 4 -19 11 -88
36 -154 56 -133 41 -185 63 -230 101 -24 20 -10 16 65 -20 53 -24 120 -49 150
-56z m552 46 c-6 -34 -54 -124 -69 -129 -8 -3 -13 -3 -11 2 1 4 16 40 32 80
16 40 34 71 40 69 6 -2 10 -12 8 -22z m-678 -203 c25 -24 51 -40 56 -37 33 20
323 -205 298 -230 -3 -3 -30 17 -61 44 -90 79 -227 184 -233 178 -3 -3 39 -40
93 -84 54 -43 104 -84 111 -91 8 -7 29 -24 48 -39 19 -14 33 -32 30 -38 -2 -7
6 -23 20 -36 13 -12 24 -30 24 -38 0 -9 -8 -2 -19 15 -11 18 -24 35 -30 39 -6
3 -9 10 -7 14 3 4 -30 28 -72 52 -189 111 -243 158 -309 269 -30 50 -16 45 51
-18z"/>
<path d="M1110 1550 c0 -5 5 -10 11 -10 5 0 7 5 4 10 -3 6 -8 10 -11 10 -2 0
-4 -4 -4 -10z"/>
<path d="M1020 1436 c0 -2 7 -7 16 -10 8 -3 12 -2 9 4 -6 10 -25 14 -25 6z"/>
<path d="M1372 1020 c0 -14 2 -19 5 -12 2 6 2 18 0 25 -3 6 -5 1 -5 -13z"/>
<path d="M1410 920 c-34 -7 -34 -7 -5 -8 17 0 44 4 60 8 27 7 27 8 5 8 -14 -1
-41 -4 -60 -8z"/>
</g>
</svg>
